/* XPM */
static char * wmdia_xpm[] = {
"64 64 29 1",
" 	c None",
".	c #4D4F4C",
"+	c #A400AA",
"@	c #732C7B",
"#	c #871C8F",
"$	c #504A54",
"%	c #970C9E",
"&	c #90149B",
"*	c #613D61",
"=	c #6D3270",
"-	c #9E0BA8",
";	c #8C1692",
">	c #5B425C",
",	c #673966",
"'	c #544854",
")	c #712F76",
"!	c #594654",
"~	c #7F2283",
"{	c #9C04A6",
"]	c #534A50",
"^	c #58435B",
"/	c #554658",
"(	c #4E4C50",
"_	c #613D66",
":	c #68366B",
"<	c #83208A",
"[	c #64396A",
"}	c #77297C",
"|	c #A206AC",
"................................................................",
"................................................................",
"................................................................",
"................................................................",
"................................................................",
"................................................................",
"................................................................",
"................................................................",
"................................................................",
"................................................................",
"................................................................",
"................................................................",
"................................................................",
"................................................................",
"................................................................",
"................................................................",
"...........................................+..+.................",
"...........................................+..+.................",
"...........................................+....................",
"........@#...$%$...&*.+=&--;>,;--#'...=%+%)+..+...!~-{~]........",
"........^-$..)-)../{(.+%_('~{&_('~#..:%*(*%+..+...{=]/<~........",
".........&=.(%:%..)~..+>...'+>...'-..&,...[+..+.......${........",
".........@#.[;.;,.;,..+(....+(....+..-]...]+..+..!<{++++........",
".........^-];:.:#${(..+.....+.....+..-]...]+..+..;~>].(+........",
"..........&@%(.(%@<...+.....+.....+..&,...[+..+..+]...,+........",
"..........}+}...}+:...+.....+.....+..:%*(*%+..+..&}']:{+........",
"..........>+!...!{$...+.....+.....+...=%+%)+..+..^;-+&=+........",
"................................................................",
"................................................................",
"................................................................",
"................................................................",
"................................................................",
"................................................................",
".................|||............||||.....||||...................",
"................||.|...........|....|...|....||.................",
"...................|..........||....||........|.................",
"...................|..........|......|........|.................",
"...................|..........|......|.......||.................",
"...................|..........|......|....||||..................",
"...................|..........|......|.......||.................",
"...................|..........|......|........|.................",
"...................|..........||....||........|.................",
"...................|......|....|....|...|....||.................",
".................|||||....|.....||||.....||||...................",
"................................................................",
"................................................................",
"................................................................",
"................................................................",
"................................................................",
"................................................................",
"................................................................",
"................................................................",
"................................................................",
"................................................................",
"................................................................",
"................................................................",
"................................................................",
"................................................................",
"................................................................",
"................................................................",
"................................................................",
"................................................................",
"................................................................",
"................................................................"};
