/* XPM */
static char * wmdia_xpm[] = {
"64 64 31 1",
" 	c None",
".	c #A400AA",
"+	c #9C04A6",
"@	c #970C9E",
"#	c #9E0BA8",
"$	c #8C1692",
"%	c #90149B",
"&	c #871C8F",
"*	c #83208A",
"=	c #7F2283",
"-	c #7D257D",
";	c #7A2682",
">	c #77297C",
",	c #732C7B",
"'	c #712F76",
")	c #6D3270",
"!	c #68366B",
"~	c #64396A",
"{	c #673966",
"]	c #613D61",
"^	c #613D66",
"/	c #5D4061",
"(	c #5B425C",
"_	c #58435B",
":	c #554658",
"<	c #594654",
"[	c #544854",
"}	c #504A54",
"|	c #534A50",
"1	c #4E4C50",
"2	c #4D4F4C",
"                                                                ",
" 22222222222222222222222222222222222222222222222222222222222222 ",
" 22222222222222222222222222222222222222222222222222222222222222 ",
" 22222222222222222222222222222222222222222222222222222222222222 ",
" 22222222222222222222222222222222222222222222222222222222222222 ",
" 22222222222222222222222222222222222222222222222222222222222222 ",
" 22222222222222222222222222222222222222222222222222222222222222 ",
" 22222222222222222222222222222222222222222222222222222222222222 ",
" 22222222222222222222222222222222222222222222222222222222222222 ",
" 22222222222222222222222222222222222222222222222222222222222222 ",
" 22222222222222222222222222222222222222222222222222222222222222 ",
" 22222222222222222222222222222222222222222222222222222222222222 ",
" 22222222222222222222222222222222222222222222222222222222222222 ",
" 22222222222222222222222222222222222222222222222222222222222222 ",
" 22222222222222222222222222222222222222222222222222222222222222 ",
" 22222222222222222222222222222222222222222222222222222222222222 ",
" 222222222222222222222222222222222222222222.22.2222222222222222 ",
" 222222222222222222222222222222222222222222.22.2222222222222222 ",
" 222222222222222222222222222222222222222222.2222222222222222222 ",
" 2222222,&222}@}222%]2.)%##$({$##&[222)@.@'.22.222<=#+=|2222222 ",
" 2222222_#}22'#'22:+12.@^1[=+%^1[=&22!@]1]@.22.222+)|:*=2222222 ",
" 22222222%)21@!@22'=22.(222[.(222[#22%{222~.22.2222222}+2222222 ",
" 22222222,&2~$2${2${22.12222.12222.22#|222|.22.22<*+....2222222 ",
" 22222222_#|$!2!&}+122.22222.22222.22#|222|.22.22$=(|21.2222222 ",
" 222222222%,@121@,*222.22222.22222.22%{222~.22.22.|222{.2222222 ",
" 222222222>.>222>.!222.22222.22222.22!@]1]@.22.22%>[|!+.2222222 ",
" 222222222(.<222<+}222.22222.22222.222)@.@'.22.22_$#.%).2222222 ",
" 22222222222222222222222222222222222222222222222222222222222222 ",
" 22222222222222222222222222222222222222222222222222222222222222 ",
" 22222222222222222222222222222222222222222222222222222222222222 ",
" 22222222222222222222222222222222222222222222222222222222222222 ",
" 22222222222222222222222222222222222222222222222222222222222222 ",
" 22222222222222222222222222222222222222222222222222222222222222 ",
" 22222222222222222222222222222222222222222222222222222222222222 ",
" 2222222222222222/=+.22222222222($##$(2222($##$(222222222222222 ",
" 2222222222222222@>(.2222222222<+'}}'+[22<+'}}'+[22222222222222 ",
" 2222222222222222222.2222222222;=2222=-22;=2222=-22222222222222 ",
" 2222222222222222222.2222222222%]2222]%22%]2222]%22222222222222 ",
" 2222222222222222222.2222222222+}2222}+22+}2222}+22222222222222 ",
" 2222222222222222222.2222222222.122221.22.122221.22222222222222 ",
" 2222222222222222222.2222222222+}2222}+22+}2222}+22222222222222 ",
" 2222222222222222222.2222222222%]2222]%22%]2222]%22222222222222 ",
" 2222222222222222222.2222222222;=2222=;22;=2222=;22222222222222 ",
" 2222222222222222222.222222.222<+'}}'+[22<+'}}'+[22222222222222 ",
" 22222222222222222.....2222.2222($##$(2222($##$(222222222222222 ",
" 22222222222222222222222222222222222222222222222222222222222222 ",
" 22222222222222222222222222222222222222222222222222222222222222 ",
" 22222222222222222222222222222222222222222222222222222222222222 ",
" 22222222222222222222222222222222222222222222222222222222222222 ",
" 22222222222222222222222222222222222222222222222222222222222222 ",
" 22222222222222222222222222222222222222222222222222222222222222 ",
" 22222222222222222222222222222222222222222222222222222222222222 ",
" 22222222222222222222222222222222222222222222222222222222222222 ",
" 22222222222222222222222222222222222222222222222222222222222222 ",
" 22222222222222222222222222222222222222222222222222222222222222 ",
" 22222222222222222222222222222222222222222222222222222222222222 ",
" 22222222222222222222222222222222222222222222222222222222222222 ",
" 22222222222222222222222222222222222222222222222222222222222222 ",
" 22222222222222222222222222222222222222222222222222222222222222 ",
" 22222222222222222222222222222222222222222222222222222222222222 ",
" 22222222222222222222222222222222222222222222222222222222222222 ",
" 22222222222222222222222222222222222222222222222222222222222222 ",
" 22222222222222222222222222222222222222222222222222222222222222 ",
"                                                                "};
