/* XPM */
static char * wmdia_xpm[] = {
"64 64 107 2",
"  	c None",
". 	c #4E4E4E",
"+ 	c #A206AC",
"@ 	c #742C79",
"# 	c #881C8F",
"$ 	c #524A52",
"% 	c #980DA1",
"& 	c #514A52",
"* 	c #92139A",
"= 	c #603E62",
"- 	c #6B346F",
"; 	c #901498",
"> 	c #9F08A8",
", 	c #9E09A7",
"' 	c #8B1992",
") 	c #5C415E",
"! 	c #663968",
"~ 	c #8E1696",
"{ 	c #9E08A8",
"] 	c #871C8E",
"^ 	c #544855",
"/ 	c #6D3271",
"( 	c #960F9F",
"_ 	c #A007AA",
": 	c #96109E",
"< 	c #6F3073",
"[ 	c #554756",
"} 	c #7F2385",
"| 	c #9A0CA3",
"1 	c #7F2384",
"2 	c #514B51",
"3 	c #58445A",
"4 	c #9F08A9",
"5 	c #712F75",
"6 	c #703075",
"7 	c #574559",
"8 	c #990DA2",
"9 	c #4E4D4E",
"0 	c #93129B",
"a 	c #613D64",
"b 	c #4F4C50",
"c 	c #802386",
"d 	c #9C0BA5",
"e 	c #623C64",
"f 	c #504C50",
"g 	c #861D8D",
"h 	c #68376B",
"i 	c #5F3E61",
"j 	c #970F9F",
"k 	c #6D3371",
"l 	c #504B50",
"m 	c #564657",
"n 	c #831F8A",
"o 	c #7E2483",
"p 	c #911499",
"q 	c #6A356E",
"r 	c #94119D",
"s 	c #69366C",
"t 	c #94119C",
"u 	c #5C415D",
"v 	c #534954",
"w 	c #5B425D",
"x 	c #8F1597",
"y 	c #653A67",
"z 	c #653968",
"A 	c #752C7A",
"B 	c #8C1893",
"C 	c #8C1894",
"D 	c #643A67",
"E 	c #504B51",
"F 	c #812187",
"G 	c #A106AA",
"H 	c #A106AB",
"I 	c #59435B",
"J 	c #891B90",
"K 	c #524A53",
"L 	c #4F4C4F",
"M 	c #7D2583",
"N 	c #5A435C",
"O 	c #752C79",
"P 	c #980EA0",
"Q 	c #4E4D4F",
"R 	c #841F8A",
"S 	c #762B7B",
"T 	c #762A7B",
"U 	c #772A7C",
"V 	c #78297D",
"W 	c #534854",
"X 	c #67386A",
"Y 	c #A007A9",
"Z 	c #9D09A6",
"` 	c #6E3272",
" .	c #970FA0",
"..	c #9F07A9",
"+.	c #6C3370",
"@.	c #5E3F60",
"#.	c #9D0AA6",
"$.	c #5B425C",
"%.	c #891A90",
"&.	c #5A425C",
"*.	c #722E76",
"=.	c #524953",
"-.	c #7A277F",
";.	c #79287E",
">.	c #9D09A7",
",.	c #79287F",
"'.	c #891A91",
"                                                                                                                                ",
"  . . . . . . . . . . . . . . . . . . . . . . . . . . . . . . . . . . . . . . . . . . . . . . . . . . . . . . . . . . . . . .   ",
"  . . . . . . . . . . . . . . . . . . . . . . . . . . . . . . . . . . . . . . . . . . . . . . . . . . . . . . . . . . . . . .   ",
"  . . . . . . . . . . . . . . . . . . . . . . . . . . . . . . . . . . . . . . . . . . . . . . . . . . . . . . . . . . . . . .   ",
"  . . . . . . . . . . . . . . . . . . . . . . . . . . . . . . . . . . . . . . . . . . . . . . . . . . . . . . . . . . . . . .   ",
"  . . . . . . . . . . . . . . . . . . . . . . . . . . . . . . . . . . . . . . . . . . . . . . . . . . . . . . . . . . . . . .   ",
"  . . . . . . . . . . . . . . . . . . . . . . . . . . . . . . . . . . . . . . . . . . . . . . . . . . . . . . . . . . . . . .   ",
"  . . . . . . . . . . . . . . . . . . . . . . . . . . . . . . . . . . . . . . . . . . . . . . . . . . . . . . . . . . . . . .   ",
"  . . . . . . . . . . . . . . . . . . . . . . . . . . . . . . . . . . . . . . . . . . . . . . . . . . . . . . . . . . . . . .   ",
"  . . . . . . . . . . . . . . . . . . . . . . . . . . . . . . . . . . . . . . . . . . . . . . . . . . . . . . . . . . . . . .   ",
"  . . . . . . . . . . . . . . . . . . . . . . . . . . . . . . . . . . . . . . . . . . . . . . . . . . . . . . . . . . . . . .   ",
"  . . . . . . . . . . . . . . . . . . . . . . . . . . . . . . . . . . . . . . . . . . . . . . . . . . . . . . . . . . . . . .   ",
"  . . . . . . . . . . . . . . . . . . . . . . . . . . . . . . . . . . . . . . . . . . . . . . . . . . . . . . . . . . . . . .   ",
"  . . . . . . . . . . . . . . . . . . . . . . . . . . . . . . . . . . . . . . . . . . . . . . . . . . . . . . . . . . . . . .   ",
"  . . . . . . . . . . . . . . . . . . . . . . . . . . . . . . . . . . . . . . . . . . . . . . . . . . . . . . . . . . . . . .   ",
"  . . . . . . . . . . . . . . . . . . . . . . . . . . . . . . . . . . . . . . . . . . . . . . . . . . . . . . . . . . . . . .   ",
"  . . . . . . . . . . . . . . . . . . . . . . . . . . . . . . . . . . . . . . . . . . + . . + . . . . . . . . . . . . . . . .   ",
"  . . . . . . . . . . . . . . . . . . . . . . . . . . . . . . . . . . . . . . . . . . + . . + . . . . . . . . . . . . . . . .   ",
"  . . . . . . . . . . . . . . . . . . . . . . . . . . . . . . . . . . . . . . . . . . + . . . . . . . . . . . . . . . . . . .   ",
"  . . . . . . . @ # . . . $ % & . . . * = . + - ; > , ' ) ! ~ { , ] ^ . . . / ( _ : < + . . + . . . [ } > | 1 2 . . . . . . .   ",
"  . . . . . . . 3 4 $ . . 5 { 6 . . 7 8 9 . + 0 a b ^ c d * e f ^ c g . . h ( i b = j + . . + . . . 8 k l m n o . . . . . . .   ",
"  . . . . . . . . p q . 9 r s t . . 5 } . . + u . . . v + w . . . v , . . x y . . . z + . . + . . . . . . . $ 8 . . . . . . .   ",
"  . . . . . . . . A g . z B . C D . ' y . . + 9 . . . . + 9 . . . . + . . > E . . . 2 + . . + . . [ F 8 G + + H . . . . . . .   ",
"  . . . . . . . . I { 2 J s . s # K | L . . + . . . . . + . . . . . + . . > E . . . 2 + . . + . . C M N l . L + . . . . . . .   ",
"  . . . . . . . . . * O P Q . L P @ R . . . + . . . . . + . . . . . + . . x y . . . z + . . + . . _ l . . . D + . . . . . . .   ",
"  . . . . . . . . . S _ T . . . U _ s . . . + . . . . . + . . . . . + . . s : i L = j + . . + . . p V W E X 8 + . . . . . . .   ",
"  . . . . . . . . . N Y [ . . . [ Z & . . . + . . . . . + . . . . . + . . . `  ._ : < + . . + . . I ' 4 ..* +.+ . . . . . . .   ",
"  . . . . . . . . . . . . . . . . . . . . . . . . . . . . . . . . . . . . . . . . . . . . . . . . . . . . . . . . . . . . . .   ",
"  . . . . . . . . . . . . . . . . . . . . . . . . . . . . . . . . . . . . . . . . . . . . . . . . . . . . . . . . . . . . . .   ",
"  . . . . . . . . . . . . . . . . . . . . . . . . . . . . . . . . . . . . . . . . . . . . . . . . . . . . . . . . . . . . . .   ",
"  . . . . . . . . . . . . . . . . . . . . . . . . . . . . . . . . . . . . . . . . . . . . . . . . . . . . . . . . . . . . . .   ",
"  . . . . . . . . . . . . . . . . . . . . . . . . . . . . . . . . . . . . . . . . . . . . . . . . . . . . . . . . . . . . . .   ",
"  . . . . . . . . . . . . . . . . . . . . . . . . . . . . . . . . . . . . . . . . . . . . . . . . . . . . . . . . . . . . . .   ",
"  . . . . . . . . . . . . . . . . . . . . . . . . . . . . . . . . . . . . . . . . . . . . . . . . . . . . . . . . . . . . . .   ",
"  . . . . . . . . . . . . . . . . @.} #.+ . . . . . . . . . . . $.%., , J &.. . . . $.%., , J &.. . . . . . . . . . . . . . .   ",
"  . . . . . . . . . . . . . . . . t V u + . . . . . . . . . . [ | *.=.=.*.8 ^ . . [ | *.=.=.*.8 ^ . . . . . . . . . . . . . .   ",
"  . . . . . . . . . . . . . . . . . . . + . . . . . . . . . . -.M . . . . M ;.. . -.M . . . . M ;.. . . . . . . . . . . . . .   ",
"  . . . . . . . . . . . . . . . . . . . + . . . . . . . . . . * i . . . . i p . . * i . . . . i p . . . . . . . . . . . . . .   ",
"  . . . . . . . . . . . . . . . . . . . + . . . . . . . . . . >.$ . . . . K Z . . >.$ . . . . K Z . . . . . . . . . . . . . .   ",
"  . . . . . . . . . . . . . . . . . . . + . . . . . . . . . . H 9 . . . . Q G . . H 9 . . . . Q G . . . . . . . . . . . . . .   ",
"  . . . . . . . . . . . . . . . . . . . + . . . . . . . . . . >.$ . . . . K Z . . >.$ . . . . K Z . . . . . . . . . . . . . .   ",
"  . . . . . . . . . . . . . . . . . . . + . . . . . . . . . . * i . . . . i p . . * i . . . . i p . . . . . . . . . . . . . .   ",
"  . . . . . . . . . . . . . . . . . . . + . . . . . . . . . . -.M . . . . M ,.. . -.M . . . . M ,.. . . . . . . . . . . . . .   ",
"  . . . . . . . . . . . . . . . . . . . + . . . . . . + . . . [ | *.=.=.*.8 ^ . . [ | *.=.=.*.8 ^ . . . . . . . . . . . . . .   ",
"  . . . . . . . . . . . . . . . . . + + + + + . . . . + . . . . w '., , %.$.. . . . w '., , %.$.. . . . . . . . . . . . . . .   ",
"  . . . . . . . . . . . . . . . . . . . . . . . . . . . . . . . . . . . . . . . . . . . . . . . . . . . . . . . . . . . . . .   ",
"  . . . . . . . . . . . . . . . . . . . . . . . . . . . . . . . . . . . . . . . . . . . . . . . . . . . . . . . . . . . . . .   ",
"  . . . . . . . . . . . . . . . . . . . . . . . . . . . . . . . . . . . . . . . . . . . . . . . . . . . . . . . . . . . . . .   ",
"  . . . . . . . . . . . . . . . . . . . . . . . . . . . . . . . . . . . . . . . . . . . . . . . . . . . . . . . . . . . . . .   ",
"  . . . . . . . . . . . . . . . . . . . . . . . . . . . . . . . . . . . . . . . . . . . . . . . . . . . . . . . . . . . . . .   ",
"  . . . . . . . . . . . . . . . . . . . . . . . . . . . . . . . . . . . . . . . . . . . . . . . . . . . . . . . . . . . . . .   ",
"  . . . . . . . . . . . . . . . . . . . . . . . . . . . . . . . . . . . . . . . . . . . . . . . . . . . . . . . . . . . . . .   ",
"  . . . . . . . . . . . . . . . . . . . . . . . . . . . . . . . . . . . . . . . . . . . . . . . . . . . . . . . . . . . . . .   ",
"  . . . . . . . . . . . . . . . . . . . . . . . . . . . . . . . . . . . . . . . . . . . . . . . . . . . . . . . . . . . . . .   ",
"  . . . . . . . . . . . . . . . . . . . . . . . . . . . . . . . . . . . . . . . . . . . . . . . . . . . . . . . . . . . . . .   ",
"  . . . . . . . . . . . . . . . . . . . . . . . . . . . . . . . . . . . . . . . . . . . . . . . . . . . . . . . . . . . . . .   ",
"  . . . . . . . . . . . . . . . . . . . . . . . . . . . . . . . . . . . . . . . . . . . . . . . . . . . . . . . . . . . . . .   ",
"  . . . . . . . . . . . . . . . . . . . . . . . . . . . . . . . . . . . . . . . . . . . . . . . . . . . . . . . . . . . . . .   ",
"  . . . . . . . . . . . . . . . . . . . . . . . . . . . . . . . . . . . . . . . . . . . . . . . . . . . . . . . . . . . . . .   ",
"  . . . . . . . . . . . . . . . . . . . . . . . . . . . . . . . . . . . . . . . . . . . . . . . . . . . . . . . . . . . . . .   ",
"  . . . . . . . . . . . . . . . . . . . . . . . . . . . . . . . . . . . . . . . . . . . . . . . . . . . . . . . . . . . . . .   ",
"  . . . . . . . . . . . . . . . . . . . . . . . . . . . . . . . . . . . . . . . . . . . . . . . . . . . . . . . . . . . . . .   ",
"  . . . . . . . . . . . . . . . . . . . . . . . . . . . . . . . . . . . . . . . . . . . . . . . . . . . . . . . . . . . . . .   ",
"                                                                                                                                "};
